Simulation
nRows=15
nColumns=15
endheader
time  TH_x TH_y TH_z SC_y  SC_z  SC_x  AC_y  AC_z  AC_x  GH_y  GH_z  GH_yy  EL_x  PS_y
0.0  0.000000  0.000000  0.000000  -34.92270202530553  1.5763178547528818  1.7924090814698743  54.87327890086043  7.913190611036581  -7.215254083430512  7.1114048312627895  4.4948729424541245  10.511374415802763  22.804066097809166  0.000000
0.011899999999999999  0.000000  0.000000  0.000000  -35.04265496638362  1.5306682917372378  1.79807699830876  54.781619648012146  7.9371528616696105  -7.29834095724556  6.155110083896319  4.48259378544025  11.532251955835239  22.69661381740922  0.000000
0.023799999999999998  0.000000  0.000000  0.000000  -34.999021351375085  1.6285210635976402  1.8072117896254984  54.714028129399814  7.929999202407258  -7.319838355849677  4.86521292071395  4.388364010965498  13.09727793195662  22.640566211471576  0.000000
0.035699999999999996  0.000000  0.000000  0.000000  -34.99746079101908  1.7389764361473656  1.8272433744527492  54.65814505799716  7.903417063218459  -7.2932170497394235  3.314475973709304  4.3249258603761245  15.008264548039227  22.61808349280791  0.000000
0.047599999999999996  0.000000  0.000000  0.000000  -35.018062203723396  1.8439788836493471  1.8458468795269523  54.61418643833681  7.8624873904010055  -7.244053055593996  1.8112388932663401  4.297385702706159  16.870143690339987  22.604556996741444  0.000000
0.0595  0.000000  0.000000  0.000000  -35.05911419991697  1.941327577353438  1.8570460440911196  54.583794979130076  7.809649396004712  -7.181166419973791  0.48242888688977065  4.314418810016293  18.555277743426117  22.599087844162053  0.000000
0.07139999999999999  0.000000  0.000000  0.000000  -35.10169063524264  2.030022054235827  1.8624805436448564  54.54977864410422  7.747357383434144  -7.113956045787517  -0.6408181371117271  4.368694028396402  20.00905481716208  22.611646411228584  0.000000
0.0833  0.000000  0.000000  0.000000  -35.14205032113478  2.1076244641932758  1.8600257597298082  54.519214727698234  7.676587868264732  -7.049230148764396  -1.5264158938732961  4.464449147472875  21.190145580136647  22.638619465924677  0.000000
0.09519999999999999  0.000000  0.000000  0.000000  -35.17618956739642  2.1730867909537857  1.851767908879257  54.488169728982484  7.599434564660629  -6.990116656523869  -2.196313230010958  4.600722106075412  22.111827486468616  22.6822931651554  0.000000
0.10709999999999999  0.000000  0.000000  0.000000  -35.20456402360696  2.226361593449923  1.8389054122692188  54.457296253568984  7.516590032513033  -6.938218389357572  -2.6808096439475815  4.778954404483426  22.797017496859965  22.740779762489588  0.000000
0.119  0.000000  0.000000  0.000000  -35.22597964272243  2.2678064699244667  1.8239098774008216  54.42805231448366  7.428838050281135  -6.8960271675689055  -3.005101220141493  4.9998178437500735  23.26688337382354  22.81291023451219  0.000000
0.1309  0.000000  0.000000  0.000000  -35.24193677331038  2.2989082377615606  1.8102790031649536  54.3989636805555  7.335809530997552  -6.863509769821087  -3.223203898974152  5.263910665321987  23.57383998861382  22.897843090742406  0.000000
0.14279999999999998  0.000000  0.000000  0.000000  -35.25085825658981  2.321509329948806  1.7989786040640248  54.37190376331166  7.238748576982492  -6.840803679522446  -3.3624856545760418  5.571315367861432  23.74302249521422  22.993626771121523  0.000000
0.15469999999999998  0.000000  0.000000  0.000000  -35.25507812681933  2.3371610292326226  1.7903314696342902  54.345981484409485  7.139718268693803  -6.825393904775212  -3.4691626639651285  5.922577619839665  23.82176523714975  23.098845857906397  0.000000
0.1666  0.000000  0.000000  0.000000  -35.25343056645676  2.346634809983544  1.7843492562035805  54.32263652627123  7.041056142298323  -6.816526723334031  -3.570347535446254  6.317576098219252  23.836763831768167  23.211849278857546  0.000000
